<?xml version="1.0" standalone="no"?>
<!DOCTYPE svg PUBLIC "-//W3C//DTD SVG 20010904//EN"
 "http://www.w3.org/TR/2001/REC-SVG-20010904/DTD/svg10.dtd">
<svg version="1.0" xmlns="http://www.w3.org/2000/svg"
 width="512.000000pt" height="512.000000pt" viewBox="0 0 512.000000 512.000000"
 preserveAspectRatio="xMidYMid meet">
<metadata>
Created by potrace 1.11, written by Peter Selinger 2001-2013
</metadata>
<g transform="translate(0.000000,512.000000) scale(0.100000,-0.100000)"
fill="#000000" stroke="none">
<path d="M2379 5116 c-2 -2 -40 -6 -83 -10 -44 -4 -82 -8 -85 -10 -3 -2 -31
-7 -61 -11 -30 -3 -75 -11 -100 -17 -25 -5 -56 -12 -70 -14 -14 -3 -72 -18
-129 -35 -469 -135 -913 -418 -1222 -780 -24 -28 -49 -56 -54 -63 -25 -27
-126 -167 -167 -231 -172 -265 -297 -573 -357 -880 -40 -200 -46 -267 -45
-515 0 -183 3 -241 19 -345 3 -16 7 -43 9 -60 48 -343 218 -756 435 -1061 64
-89 72 -98 152 -193 384 -450 956 -771 1524 -856 22 -4 51 -8 65 -11 144 -26
530 -26 708 1 17 3 44 7 60 9 146 22 451 109 581 167 587 263 1021 675 1299
1234 73 147 167 402 187 506 3 13 7 35 10 49 3 14 7 35 10 48 2 13 6 31 9 40
9 27 19 101 33 227 10 91 10 409 1 505 -9 85 -22 172 -37 245 -6 28 -13 61
-15 75 -55 276 -217 639 -401 900 -321 453 -756 778 -1280 956 -90 31 -270 79
-335 90 -70 11 -85 14 -195 30 -44 6 -460 15 -466 10z"/>
</g>
</svg>
